<?xml version="1.0" standalone="no"?>
<!DOCTYPE svg PUBLIC "-//W3C//DTD SVG 20010904//EN"
 "http://www.w3.org/TR/2001/REC-SVG-20010904/DTD/svg10.dtd">
<svg version="1.0" xmlns="http://www.w3.org/2000/svg"
 width="600.000000pt" height="600.000000pt" viewBox="0 0 600.000000 600.000000"
 preserveAspectRatio="xMidYMid meet">

<g transform="translate(0.000000,600.000000) scale(0.100000,-0.100000)"
fill="#000000" stroke="none">
<path d="M2810 5599 c0 -39 -51 -174 -92 -244 -71 -120 -148 -215 -288 -355
-388 -390 -940 -724 -1519 -921 -144 -49 -421 -121 -515 -135 l-48 -7 6 -46
c3 -25 16 -108 28 -183 25 -160 9 -150 164 -118 646 133 1325 456 1864 886
222 177 478 444 555 577 15 26 31 47 35 47 4 0 20 -21 35 -47 47 -82 133 -183
279 -328 350 -349 828 -663 1348 -886 263 -113 687 -240 884 -265 l51 -6 21
138 c12 77 25 160 28 185 l6 46 -48 7 c-82 12 -322 72 -444 111 -388 125 -827
344 -1150 575 -183 131 -295 225 -440 370 -140 140 -217 235 -288 355 -41 70
-92 205 -92 244 0 21 -4 21 -190 21 -186 0 -190 0 -190 -21z"/>
<path d="M4655 5526 c-58 -265 -131 -512 -186 -635 -16 -35 -28 -65 -27 -66 2
-2 227 -123 311 -167 15 -8 23 2 56 74 99 214 244 741 207 753 -6 2 -89 17
-184 33 l-172 29 -5 -21z"/>
<path d="M940 2060 l0 -1310 2060 0 2060 0 0 1310 0 1310 -185 0 -185 0 -2
-1122 -3 -1123 -1685 0 -1685 0 -3 1123 -2 1122 -185 0 -185 0 0 -1310z"/>
<path d="M2156 3118 c-14 -538 -56 -946 -141 -1379 -19 -96 -35 -180 -35 -185
0 -10 348 -100 356 -92 9 9 53 251 83 458 40 275 68 542 81 790 6 113 14 224
16 248 l5 42 479 0 479 0 5 -42 c3 -24 8 -106 11 -183 11 -275 55 -681 110
-1010 45 -268 54 -305 71 -305 35 0 344 84 344 93 0 6 -16 90 -35 186 -84 431
-127 845 -141 1369 l-7 262 -837 0 -837 0 -7 -252z"/>
</g>
</svg>
